<mxfile host="app.diagrams.net" modified="2022-12-19T13:15:50.968Z" agent="5.0 (Windows NT 10.0; Win64; x64) AppleWebKit/537.36 (KHTML, like Gecko) Chrome/108.0.0.0 Safari/537.36" etag="92M4i8FnQv4-e30UBKyw" version="20.7.4" type="github">
  <diagram name="Page-1" id="b5b7bab2-c9e2-2cf4-8b2a-24fd1a2a6d21">
    <mxGraphModel dx="1049" dy="541" grid="1" gridSize="10" guides="1" tooltips="1" connect="1" arrows="1" fold="1" page="1" pageScale="1" pageWidth="1169" pageHeight="1654" background="none" math="0" shadow="0">
      <root>
        <mxCell id="0" />
        <mxCell id="1" parent="0" />
        <mxCell id="z4LwI91GZQWur_aNp2KQ-3" value="" style="edgeStyle=orthogonalEdgeStyle;rounded=0;orthogonalLoop=1;jettySize=auto;html=1;" edge="1" parent="1" source="z4LwI91GZQWur_aNp2KQ-1" target="z4LwI91GZQWur_aNp2KQ-2">
          <mxGeometry relative="1" as="geometry" />
        </mxCell>
        <mxCell id="z4LwI91GZQWur_aNp2KQ-11" style="edgeStyle=orthogonalEdgeStyle;rounded=0;orthogonalLoop=1;jettySize=auto;html=1;entryX=0.5;entryY=0;entryDx=0;entryDy=0;entryPerimeter=0;" edge="1" parent="1" source="z4LwI91GZQWur_aNp2KQ-1" target="z4LwI91GZQWur_aNp2KQ-10">
          <mxGeometry relative="1" as="geometry" />
        </mxCell>
        <mxCell id="z4LwI91GZQWur_aNp2KQ-1" value="Deck" style="rounded=1;whiteSpace=wrap;html=1;" vertex="1" parent="1">
          <mxGeometry x="390" y="220" width="120" height="60" as="geometry" />
        </mxCell>
        <mxCell id="z4LwI91GZQWur_aNp2KQ-5" value="" style="edgeStyle=orthogonalEdgeStyle;rounded=0;orthogonalLoop=1;jettySize=auto;html=1;" edge="1" parent="1" source="z4LwI91GZQWur_aNp2KQ-2" target="z4LwI91GZQWur_aNp2KQ-4">
          <mxGeometry relative="1" as="geometry" />
        </mxCell>
        <mxCell id="z4LwI91GZQWur_aNp2KQ-13" style="edgeStyle=orthogonalEdgeStyle;rounded=0;orthogonalLoop=1;jettySize=auto;html=1;entryX=0.5;entryY=0;entryDx=0;entryDy=0;entryPerimeter=0;" edge="1" parent="1" source="z4LwI91GZQWur_aNp2KQ-2" target="z4LwI91GZQWur_aNp2KQ-12">
          <mxGeometry relative="1" as="geometry" />
        </mxCell>
        <mxCell id="z4LwI91GZQWur_aNp2KQ-2" value="Carta" style="whiteSpace=wrap;html=1;rounded=1;" vertex="1" parent="1">
          <mxGeometry x="590" y="220" width="120" height="60" as="geometry" />
        </mxCell>
        <mxCell id="z4LwI91GZQWur_aNp2KQ-15" style="edgeStyle=orthogonalEdgeStyle;rounded=0;orthogonalLoop=1;jettySize=auto;html=1;entryX=0.5;entryY=0;entryDx=0;entryDy=0;entryPerimeter=0;" edge="1" parent="1" source="z4LwI91GZQWur_aNp2KQ-4" target="z4LwI91GZQWur_aNp2KQ-14">
          <mxGeometry relative="1" as="geometry" />
        </mxCell>
        <mxCell id="z4LwI91GZQWur_aNp2KQ-4" value="Organização" style="whiteSpace=wrap;html=1;rounded=1;" vertex="1" parent="1">
          <mxGeometry x="790" y="220" width="120" height="60" as="geometry" />
        </mxCell>
        <mxCell id="z4LwI91GZQWur_aNp2KQ-7" style="edgeStyle=orthogonalEdgeStyle;rounded=0;orthogonalLoop=1;jettySize=auto;html=1;entryX=0;entryY=0.5;entryDx=0;entryDy=0;" edge="1" parent="1" source="z4LwI91GZQWur_aNp2KQ-6" target="z4LwI91GZQWur_aNp2KQ-1">
          <mxGeometry relative="1" as="geometry" />
        </mxCell>
        <mxCell id="z4LwI91GZQWur_aNp2KQ-6" value="Jogador" style="rounded=1;whiteSpace=wrap;html=1;" vertex="1" parent="1">
          <mxGeometry x="190" y="220" width="120" height="60" as="geometry" />
        </mxCell>
        <mxCell id="z4LwI91GZQWur_aNp2KQ-9" style="edgeStyle=orthogonalEdgeStyle;rounded=0;orthogonalLoop=1;jettySize=auto;html=1;entryX=0.5;entryY=0;entryDx=0;entryDy=0;" edge="1" parent="1" source="z4LwI91GZQWur_aNp2KQ-8" target="z4LwI91GZQWur_aNp2KQ-6">
          <mxGeometry relative="1" as="geometry" />
        </mxCell>
        <mxCell id="z4LwI91GZQWur_aNp2KQ-17" style="edgeStyle=orthogonalEdgeStyle;rounded=0;orthogonalLoop=1;jettySize=auto;html=1;" edge="1" parent="1" source="z4LwI91GZQWur_aNp2KQ-8" target="z4LwI91GZQWur_aNp2KQ-16">
          <mxGeometry relative="1" as="geometry" />
        </mxCell>
        <mxCell id="z4LwI91GZQWur_aNp2KQ-8" value="Usuario" style="rounded=1;whiteSpace=wrap;html=1;" vertex="1" parent="1">
          <mxGeometry x="190" y="70" width="120" height="60" as="geometry" />
        </mxCell>
        <mxCell id="z4LwI91GZQWur_aNp2KQ-10" value="" style="shape=cylinder3;whiteSpace=wrap;html=1;boundedLbl=1;backgroundOutline=1;size=15;" vertex="1" parent="1">
          <mxGeometry x="420" y="304" width="60" height="50" as="geometry" />
        </mxCell>
        <mxCell id="z4LwI91GZQWur_aNp2KQ-12" value="" style="shape=cylinder3;whiteSpace=wrap;html=1;boundedLbl=1;backgroundOutline=1;size=15;" vertex="1" parent="1">
          <mxGeometry x="620" y="304" width="60" height="50" as="geometry" />
        </mxCell>
        <mxCell id="z4LwI91GZQWur_aNp2KQ-14" value="" style="shape=cylinder3;whiteSpace=wrap;html=1;boundedLbl=1;backgroundOutline=1;size=15;" vertex="1" parent="1">
          <mxGeometry x="820" y="304" width="60" height="50" as="geometry" />
        </mxCell>
        <mxCell id="z4LwI91GZQWur_aNp2KQ-16" value="" style="shape=cylinder3;whiteSpace=wrap;html=1;boundedLbl=1;backgroundOutline=1;size=15;" vertex="1" parent="1">
          <mxGeometry x="350" y="75" width="60" height="50" as="geometry" />
        </mxCell>
      </root>
    </mxGraphModel>
  </diagram>
</mxfile>
